<?xml version="1.0" standalone="no"?>
<!DOCTYPE svg PUBLIC "-//W3C//DTD SVG 20010904//EN"
 "http://www.w3.org/TR/2001/REC-SVG-20010904/DTD/svg10.dtd">
<svg version="1.0" xmlns="http://www.w3.org/2000/svg"
 width="500.000000pt" height="500.000000pt" viewBox="0 0 500.000000 500.000000"
 preserveAspectRatio="xMidYMid meet">

<g transform="translate(0.000000,500.000000) scale(0.100000,-0.100000)"
fill="#2D29DE" stroke="none">
<path d="M2328 4810 c-315 -27 -607 -110 -894 -255 -196 -100 -229 -120 -379
-236 -90 -69 -140 -117 -294 -284 -166 -181 -364 -519 -451 -772 -103 -297
-134 -499 -127 -818 5 -225 19 -336 68 -527 48 -189 140 -428 165 -428 7 0 57
20 111 44 131 59 136 60 163 38 35 -28 19 -59 -43 -87 -140 -62 -187 -86 -187
-94 0 -16 115 -204 134 -220 14 -11 37 0 184 87 58 35 93 40 112 16 27 -32 1
-63 -105 -121 -55 -30 -105 -60 -112 -66 -29 -28 204 -272 405 -425 364 -276
784 -433 1264 -472 341 -28 805 53 1121 197 211 96 340 176 532 329 126 101
345 329 345 360 0 9 -22 23 -130 82 -96 52 -100 55 -106 80 -8 29 12 52 43 52
14 0 74 -29 134 -65 61 -36 113 -65 117 -65 8 0 15 10 89 133 29 48 53 92 53
98 0 6 -39 28 -87 51 -49 22 -102 47 -120 55 -40 19 -51 48 -27 74 26 29 24
30 206 -55 l78 -35 24 48 c55 108 146 412 183 611 25 135 25 580 0 725 -60
342 -177 628 -386 945 -119 181 -316 394 -483 523 -442 343 -1046 523 -1600
477z m-841 -480 c210 -141 399 -329 544 -543 34 -51 64 -94 65 -96 2 -2 59 4
126 13 157 21 387 21 551 0 70 -9 129 -15 131 -13 1 2 33 49 71 104 148 217
332 401 539 537 109 72 142 76 192 23 59 -63 140 -196 228 -375 130 -266 208
-526 270 -899 l22 -135 120 -33 c161 -44 164 -47 164 -209 l0 -122 -39 -58
c-33 -51 -40 -70 -46 -134 -9 -96 -40 -257 -65 -329 -11 -31 -33 -108 -49
-171 -28 -108 -62 -210 -79 -237 -5 -9 -26 -5 -80 14 l-72 26 73 77 c91 97
128 165 165 310 36 136 38 152 52 293 10 113 16 131 62 187 27 33 28 39 28
142 0 101 -1 108 -22 122 -58 37 -454 126 -683 152 -203 24 -474 15 -605 -19
-174 -45 -284 -108 -389 -223 -33 -37 -61 -71 -61 -75 0 -21 -38 -27 -90 -13
-70 18 -164 18 -224 0 -58 -18 -64 -15 -95 29 -35 52 -150 155 -214 194 -75
44 -200 86 -317 107 -128 22 -452 15 -625 -15 -305 -52 -571 -118 -592 -147
-17 -23 -18 -187 -1 -217 6 -12 24 -38 39 -57 34 -44 35 -50 49 -190 19 -202
70 -388 130 -476 19 -27 62 -79 97 -115 l64 -67 -58 -20 c-32 -11 -65 -23 -74
-26 -21 -9 -58 81 -105 254 -18 69 -45 163 -59 210 -27 87 -55 247 -55 311 0
26 -12 54 -43 99 l-42 63 -3 113 c-3 88 0 118 12 143 21 39 29 43 161 76 61
15 112 29 113 31 2 1 14 65 27 142 32 187 85 406 141 581 76 236 296 648 377
706 36 26 87 13 174 -45z m327 -1501 c55 -11 123 -32 152 -46 119 -58 221
-168 257 -277 44 -130 -4 -414 -95 -567 -44 -76 -134 -166 -195 -198 -23 -11
-77 -31 -120 -43 -69 -20 -99 -23 -268 -22 -225 1 -338 20 -452 78 -88 44
-131 81 -187 160 -99 140 -129 248 -130 471 -1 139 1 154 23 199 35 70 130
162 204 196 161 75 564 99 811 49z m1826 21 c161 -13 282 -35 348 -65 71 -33
175 -134 210 -204 25 -53 27 -64 26 -186 -1 -213 -35 -340 -124 -470 -64 -92
-111 -132 -208 -178 -110 -53 -229 -72 -447 -72 -157 1 -191 4 -263 24 -207
58 -336 211 -397 471 -36 152 -33 295 6 380 34 72 105 149 182 197 77 48 102
59 197 79 148 31 287 38 470 24z m-2902 -113 c15 -25 15 -30 2 -55 -30 -53
-110 -35 -110 25 0 64 75 84 108 30z m3611 6 c34 -43 7 -93 -51 -93 -45 0 -65
64 -31 102 23 26 58 22 82 -9z m-1791 -319 c31 -21 40 -42 52 -120 6 -38 27
-121 47 -184 79 -257 194 -414 362 -500 79 -39 154 -57 301 -70 167 -16 447 6
558 44 l72 25 115 -32 114 -32 -25 -45 c-58 -104 -98 -152 -119 -146 -11 3
-74 23 -140 46 -156 52 -308 84 -335 70 -41 -22 -14 -90 36 -90 51 0 212 -42
294 -77 47 -20 87 -37 89 -39 13 -12 -153 -153 -279 -237 -191 -127 -509 -246
-785 -293 -125 -21 -509 -30 -671 -15 -410 38 -795 184 -1084 410 -56 43 -140
123 -140 132 0 4 15 12 32 20 18 7 56 23 83 35 28 12 108 34 179 48 71 15 133
29 138 32 4 3 8 18 8 34 0 48 -25 53 -135 30 -104 -23 -304 -84 -347 -106 -27
-14 -28 -13 -69 48 -23 34 -53 80 -65 102 l-23 41 112 32 112 32 75 -24 c146
-48 496 -64 680 -31 272 48 439 219 544 556 19 63 40 149 46 190 9 63 15 79
40 103 35 31 92 37 128 11z"/>
<path d="M1351 4038 c-16 -35 -50 -108 -76 -163 -136 -288 -235 -576 -235
-685 l0 -35 78 73 c42 40 116 100 165 133 93 64 288 165 375 194 29 9 56 23
59 30 5 15 -29 75 -175 315 -100 164 -127 200 -149 200 -8 0 -27 -28 -42 -62z"/>
<path d="M3563 4066 c-28 -35 -272 -434 -285 -467 -6 -15 5 -22 65 -45 203
-77 406 -200 541 -329 l79 -75 -7 59 c-16 144 -100 382 -243 691 -84 179 -95
200 -108 200 -7 0 -26 -15 -42 -34z"/>
<path d="M1495 2667 c-149 -50 -248 -152 -291 -302 -53 -187 50 -408 231 -492
54 -25 70 -28 170 -28 104 0 114 2 175 32 204 102 290 332 204 547 -37 93
-102 162 -199 211 -68 35 -85 39 -163 42 -53 2 -102 -2 -127 -10z m96 -120
c66 -44 87 -127 47 -187 -36 -52 -71 -73 -121 -73 -109 0 -176 103 -131 200
37 77 136 106 205 60z m-139 -324 c25 -23 23 -68 -4 -87 -30 -22 -54 -20 -79
5 -52 52 28 132 83 82z m401 -184 c5 -9 7 -27 4 -41 -8 -30 -51 -46 -73 -27
-17 14 -18 61 -2 77 17 17 58 11 71 -9z"/>
<path d="M3275 2662 c-172 -59 -280 -200 -293 -380 -4 -61 0 -87 23 -160 26
-79 35 -93 94 -153 40 -40 90 -77 126 -95 55 -27 69 -29 170 -29 100 0 116 3
171 28 73 34 162 120 198 193 92 185 38 409 -129 536 -95 72 -250 98 -360 60z
m102 -112 c88 -53 83 -198 -9 -246 -41 -21 -111 -21 -144 1 -115 75 -62 265
74 265 29 0 59 -8 79 -20z m-145 -327 c39 -35 11 -103 -42 -103 -50 0 -72 53
-39 93 23 31 54 35 81 10z m398 -187 c19 -24 8 -59 -23 -74 -25 -12 -31 -12
-48 4 -21 19 -25 54 -7 72 17 17 63 15 78 -2z"/>
<path d="M2410 1802 c-29 -14 -36 -23 -38 -53 -2 -29 4 -43 38 -81 48 -55 47
-79 -5 -134 -25 -26 -41 -34 -67 -34 -35 0 -78 29 -78 54 0 23 -37 48 -59 41
-46 -14 -34 -104 20 -149 77 -65 194 -51 258 30 l20 25 40 -40 c64 -64 145
-76 218 -31 60 36 92 120 58 154 -25 24 -47 16 -67 -24 -23 -45 -44 -60 -85
-60 -39 0 -77 34 -100 89 -14 32 -13 35 15 65 63 66 69 116 20 146 -43 26
-139 27 -188 2z"/>
</g>
</svg>
